<svg xmlns="http://www.w3.org/2000/svg" xmlns:xlink="http://www.w3.org/1999/xlink" width="128" height="128" viewBox="0 0 128 128">
  <defs>
    <clipPath id="clip-path">
      <circle id="Ellipse_1167" data-name="Ellipse 1167" cx="64" cy="64" r="64" transform="translate(15952 -23580)" fill="#fff"/>
    </clipPath>
  </defs>
  <g id="Mask_Group_164" data-name="Mask Group 164" transform="translate(-15952 23580)" clip-path="url(#clip-path)">
    <g id="bludac_lg" transform="translate(15951.199 -23451.119)">
      <path id="Path_13221" data-name="Path 13221" d="M62.132-128.824a9.541,9.541,0,0,1-1.728.18,62.862,62.862,0,0,0-23.319,6.193,60.811,60.811,0,0,0-17.354,12.338A61.137,61.137,0,0,0,8.053-94.308,63.813,63.813,0,0,0,.936-68.2a43.087,43.087,0,0,0,0,6.817A63.818,63.818,0,0,0,10.9-30.436,64.875,64.875,0,0,0,25.875-14.09a75.538,75.538,0,0,0,6.889,4.609,64.036,64.036,0,0,0,67.449-2.076,65.66,65.66,0,0,0,15.878-15.014,64.659,64.659,0,0,0,10.693-22.335A63.927,63.927,0,0,0,127.8-76.09a64.787,64.787,0,0,0-7.669-20.883,64.263,64.263,0,0,0-37.613-29.344,68.085,68.085,0,0,0-13.274-2.352A65.852,65.852,0,0,0,62.132-128.824Zm7.969,5.689a61.345,61.345,0,0,1,9.109,1.524,58.779,58.779,0,0,1,12.722,4.861,58.958,58.958,0,0,1,26.991,29.488A58.656,58.656,0,0,1,123.1-70.629a76.139,76.139,0,0,1,0,11.581,62.1,62.1,0,0,1-1.824,9.781c-.54,1.932-1.356,4.477-1.68,5.185a2.7,2.7,0,0,0-.18.444c0,.192-1.332,3.2-2.1,4.753A56.729,56.729,0,0,1,106.826-24.1a54.618,54.618,0,0,1-6.3,5.665A58.031,58.031,0,0,1,74.109-7.021a59.888,59.888,0,0,1-22.035-.66,58.54,58.54,0,0,1-10.285-3.312c-.348-.156-.66-.288-.684-.288-.132,0-2.976-1.392-4.177-2.052A58.766,58.766,0,0,1,8.413-49.11a59.658,59.658,0,0,1-1.38-25.119c.312-1.92.36-2.16.84-4.2a58.089,58.089,0,0,1,13.442-25.563,58.408,58.408,0,0,1,14.63-11.773c1.428-.816,4.861-2.568,5.041-2.568.024,0,.336-.132.684-.288A58.927,58.927,0,0,1,70.1-123.136Z" fill="#181875"/>
      <path id="Path_13222" data-name="Path 13222" d="M60.788-111.722a30.611,30.611,0,0,0-17.51,8.605,30.539,30.539,0,0,0-9.013,18.686c-.144,1.392-.18,4.393-.18,17.786v16.118H50.262c10.105,0,16.658-.048,17.486-.12a30.394,30.394,0,0,0,8.557-2.1,37.047,37.047,0,0,0,4.489-2.232c.444-.324.516-.288.732.276a17.383,17.383,0,0,1,1.08,6.277,16.943,16.943,0,0,1-5.2,12.542,17.056,17.056,0,0,1-12,5.245,17.423,17.423,0,0,1-13.142-5.185A17.483,17.483,0,0,1,47.01-47.706l-.024-.48-6.445-.036-6.457-.024v.744a37.55,37.55,0,0,0,.612,5.2A30.722,30.722,0,0,0,45.03-24.951a28.014,28.014,0,0,0,6.1,4.009A28.814,28.814,0,0,0,61.664-17.87,30.454,30.454,0,0,0,84.071-24.5,30.491,30.491,0,0,0,95.532-48.426a30.381,30.381,0,0,0-9.313-22.023,30.53,30.53,0,0,0-15.29-8.1c-2.736-.552-3.7-.6-12.962-.6h-8.7l-.036,6.445-.024,6.457h8.281c8.737,0,9.805.048,11.7.54a9.067,9.067,0,0,1,2.46.876,11.764,11.764,0,0,1-2.916.984c-1.692.408-3.624.468-12.9.48h-8.8l.048-10.3c.048-11.425,0-10.717.888-13.346a16.625,16.625,0,0,1,4.3-6.793,16.91,16.91,0,0,1,6.769-4.3A17.867,17.867,0,0,1,76.81-94.416a17.9,17.9,0,0,1,4.933,7.525,18.53,18.53,0,0,1,.516,9.4,4.8,4.8,0,0,0-.144.972,34.881,34.881,0,0,1,9.217,8.5,8.5,8.5,0,0,0,.732.936,6.555,6.555,0,0,0,.576-1.08A30.864,30.864,0,0,0,93.2-93.048a31.028,31.028,0,0,0-19.514-17.63A31.985,31.985,0,0,0,60.788-111.722Z" fill="#181875"/>
    </g>
  </g>
</svg>
