<svg id="Layer_2" data-name="Layer 2" xmlns="http://www.w3.org/2000/svg" width="215.08" height="215.08" viewBox="0 0 215.08 215.08">
  <g id="Layer_5" data-name="Layer 5">
    <circle id="Ellipse_1154" data-name="Ellipse 1154" cx="107.54" cy="107.54" r="107.54" transform="translate(0 0)" fill="#ff97c3"/>
    <path id="Path_13199" data-name="Path 13199" d="M155,101a32.851,32.851,0,0,1-2.94,5,27.122,27.122,0,0,0-2.73-2.84l-14.06-12.7-21.7-18.41h0L108,77.32l-10.51,10L77.65,106.05,73.49,110,57.86,97.1l.55-.53L77.65,78.35,97.48,59.57l10.51-10,5.57-5.27h0l21.72,18.39,14.06,12.7a25.69,25.69,0,0,1,5.08,6.2c.13.23.27.47.39.71C157.15,86.74,158.75,93.06,155,101Z" fill="#ff97c3" stroke="#fff" stroke-linecap="round" stroke-linejoin="round" stroke-width="2"/>
    <path id="Path_13200" data-name="Path 13200" d="M113.53,143.03v27.7l-12.45-10.28-21.6-17.82L57.86,124.8l.55-.53,15.08-14.28,5.99,4.95,21.6,17.81Z" fill="#dce8f2" stroke="#fff" stroke-linecap="round" stroke-linejoin="round" stroke-width="2"/>
    <path id="Path_13201" data-name="Path 13201" d="M152.08,106a48.818,48.818,0,0,1-3.92,4.8l-1.38,1.29-33.25,31-12.45-10.28L79.48,115l-6-5,4.16-3.94L97.48,87.27l10.51-10L113.56,72h0l21.72,18.39,14.06,12.7A27.121,27.121,0,0,1,152.08,106Z" fill="#d96c9f" stroke="#fff" stroke-linecap="round" stroke-linejoin="round" stroke-width="2"/>
    <path id="Path_13202" data-name="Path 13202" d="M155,128.7a39.25,39.25,0,0,1-6.86,9.78l-1.38,1.29-33.25,31V143l33.25-31,1.38-1.29a48.82,48.82,0,0,0,3.92-4.8,23,23,0,0,1,2.35,3.36c.13.23.27.47.39.71C157.15,114.44,158.75,120.76,155,128.7Z" fill="#dce8f2" stroke="#fff" stroke-linecap="round" stroke-linejoin="round" stroke-width="2"/>
    <path id="Path_13203" data-name="Path 13203" d="M73.49,109.99,58.41,124.27l-.55.53V97.1Z" fill="#a9a7d9" stroke="#fff" stroke-linecap="round" stroke-linejoin="round" stroke-width="2"/>
  </g>
</svg>
